<svg xmlns="http://www.w3.org/2000/svg" xmlns:xlink="http://www.w3.org/1999/xlink" width="1057" height="561" viewBox="0 0 1057 561">
  <defs>
    <filter id="Rectangle_1262" x="0" y="0" width="1057" height="561" filterUnits="userSpaceOnUse">
      <feOffset dy="20" input="SourceAlpha"/>
      <feGaussianBlur stdDeviation="15" result="blur"/>
      <feFlood flood-opacity="0.082"/>
      <feComposite operator="in" in2="blur"/>
      <feComposite in="SourceGraphic"/>
    </filter>
  </defs>
  <g id="graphic3" transform="translate(44.915 109.5)">
    <g transform="matrix(1, 0, 0, 1, -44.92, -109.5)" filter="url(#Rectangle_1262)">
      <rect id="Rectangle_1262-2" data-name="Rectangle 1262" width="967" height="471" rx="16" transform="translate(45 25)" fill="#fff"/>
    </g>
    <text id="Page_Ranking" data-name="Page Ranking" transform="translate(122.085 -13.5)" fill="#2920b0" font-size="28" font-family="ArialMT, Arial"><tspan x="0" y="0">Page Ranking</tspan></text>
    <text id="_4" data-name="4" transform="translate(203.084 336.5)" fill="#174780" font-size="32" font-family="ArialMT, Arial"><tspan x="0" y="0">4</tspan></text>
    <text id="_3" data-name="3" transform="translate(442.085 336.5)" fill="#174780" font-size="32" font-family="ArialMT, Arial"><tspan x="0" y="0">3</tspan></text>
    <text id="_4-2" data-name="4" transform="translate(647.085 336.5)" fill="#174780" font-size="32" font-family="ArialMT, Arial"><tspan x="0" y="0">4</tspan></text>
    <text id="_4-3" data-name="4" transform="translate(843.085 336.5)" fill="#174780" font-size="32" font-family="Arial-BoldMT, Arial" font-weight="700"><tspan x="0" y="0">4</tspan></text>
    <text id="_2" data-name="2" transform="translate(203.084 218.5)" fill="#174780" font-size="32" font-family="ArialMT, Arial"><tspan x="0" y="0">2</tspan></text>
    <text id="_1" data-name="1" transform="translate(442.085 218.5)" fill="#174780" font-size="32" font-family="ArialMT, Arial"><tspan x="0" y="0">1</tspan></text>
    <text id="_3-2" data-name="3" transform="translate(647.085 218.5)" fill="#174780" font-size="32" font-family="ArialMT, Arial"><tspan x="0" y="0">3</tspan></text>
    <text id="_3-3" data-name="3" transform="translate(843.085 218.5)" fill="#174780" font-size="32" font-family="Arial-BoldMT, Arial" font-weight="700"><tspan x="0" y="0">3</tspan></text>
    <text id="Mar_25" data-name="Mar 25" transform="translate(604.085 -13.5)" fill="#2920b0" font-size="28" font-family="ArialMT, Arial"><tspan x="0" y="0">Mar 25</tspan></text>
    <text id="Change" transform="translate(785.086 -13.5)" fill="#2920b0" font-size="28" font-family="ArialMT, Arial"><tspan x="0" y="0">Change</tspan></text>
    <text id="Mar_26" data-name="Mar 26" transform="translate(409.085 -13.5)" fill="#2920b0" font-size="28" font-family="ArialMT, Arial"><tspan x="0" y="0">Mar 26</tspan></text>
    <text id="_1-2" data-name="1" transform="translate(203.084 101.5)" fill="#174780" font-size="32" font-family="ArialMT, Arial"><tspan x="0" y="0">1</tspan></text>
    <text id="_2-2" data-name="2" transform="translate(442.085 101.5)" fill="#174780" font-size="32" font-family="ArialMT, Arial"><tspan x="0" y="0">2</tspan></text>
    <text id="_4-4" data-name="4" transform="translate(647.085 101.5)" fill="#174780" font-size="32" font-family="ArialMT, Arial"><tspan x="0" y="0">4</tspan></text>
    <text id="_2-3" data-name="2" transform="translate(843.085 101.5)" fill="#174780" font-size="32" font-family="Arial-BoldMT, Arial" font-weight="700"><tspan x="0" y="0">2</tspan></text>
    <line id="Line_60" data-name="Line 60" x2="967.168" transform="translate(0.684 32.351)" fill="none" stroke="#e7eef0" stroke-width="1"/>
    <line id="Line_61" data-name="Line 61" x2="967.168" transform="translate(0.684 148.003)" fill="none" stroke="#e7eef0" stroke-width="1"/>
    <line id="Line_62" data-name="Line 62" x2="967.168" transform="translate(0.684 265.454)" fill="none" stroke="#e7eef0" stroke-width="1"/>
    <g id="arrow" transform="translate(815.548 98.5) rotate(-90)">
      <g id="Group_1252" data-name="Group 1252" transform="translate(0 0)">
        <path id="Path_4208" data-name="Path 4208" d="M18.147,8.77,9.673.3a.978.978,0,0,0-1.4,0,.959.959,0,0,0-.3.7V5.483H1a.959.959,0,0,0-.7.3.958.958,0,0,0-.3.7v5.981a.958.958,0,0,0,.3.7.96.96,0,0,0,.7.3H7.975v4.486a.991.991,0,0,0,1.7.7l8.474-8.473a.978.978,0,0,0,0-1.4Z" fill="#6bbc1b"/>
      </g>
    </g>
    <g id="arrow-2" data-name="arrow" transform="translate(834.489 197.508) rotate(90)">
      <g id="Group_1252-2" data-name="Group 1252" transform="translate(0 0)">
        <path id="Path_4208-2" data-name="Path 4208" d="M18.147,8.77,9.673.3a.978.978,0,0,0-1.4,0,.959.959,0,0,0-.3.7V5.483H1a.959.959,0,0,0-.7.3.958.958,0,0,0-.3.7v5.981a.958.958,0,0,0,.3.7.96.96,0,0,0,.7.3H7.975v4.486a.991.991,0,0,0,1.7.7l8.474-8.473a.978.978,0,0,0,0-1.4Z"/>
      </g>
    </g>
    <g id="arrow-3" data-name="arrow" transform="translate(834.489 197.508) rotate(90)">
      <g id="Group_1252-3" data-name="Group 1252" transform="translate(0 0)">
        <path id="Path_4208-3" data-name="Path 4208" d="M18.147,8.77,9.673.3a.978.978,0,0,0-1.4,0,.959.959,0,0,0-.3.7V5.483H1a.959.959,0,0,0-.7.3.958.958,0,0,0-.3.7v5.981a.958.958,0,0,0,.3.7.96.96,0,0,0,.7.3H7.975v4.486a.991.991,0,0,0,1.7.7l8.474-8.473a.978.978,0,0,0,0-1.4Z" fill="#f05252"/>
      </g>
    </g>
    <g id="arrow-4" data-name="arrow" transform="translate(834.489 314.958) rotate(90)">
      <g id="Group_1252-4" data-name="Group 1252" transform="translate(0 0)">
        <path id="Path_4208-4" data-name="Path 4208" d="M18.147,8.77,9.673.3a.978.978,0,0,0-1.4,0,.959.959,0,0,0-.3.7V5.483H1a.959.959,0,0,0-.7.3.958.958,0,0,0-.3.7v5.981a.958.958,0,0,0,.3.7.96.96,0,0,0,.7.3H7.975v4.486a.991.991,0,0,0,1.7.7l8.474-8.473a.978.978,0,0,0,0-1.4Z" fill="#f05252"/>
      </g>
    </g>
  </g>
</svg>
