<svg xmlns="http://www.w3.org/2000/svg" width="120" height="120" viewBox="0 0 120 120">
  <g id="Group_1299" data-name="Group 1299" transform="translate(-1224.398 -5523.808)">
    <rect id="Rectangle_2345" data-name="Rectangle 2345" width="120" height="120" rx="36" transform="translate(1224.398 5523.808)" fill="#ac4bff"/>
    <g id="SEO" transform="translate(1254.492 5553.899)">
      <path id="Path_4158" data-name="Path 4158" d="M14.22,326.934,1.531,339.621a5.235,5.235,0,0,0,7.4,7.4l12.71-12.707A26.64,26.64,0,0,1,14.22,326.934Z" transform="translate(0 -288.739)" fill="#fff"/>
      <path id="Path_4159" data-name="Path 4159" d="M152.122,6.841a23.341,23.341,0,1,0,0,33.025A23.2,23.2,0,0,0,152.122,6.841ZM135.6,37.883a14.536,14.536,0,1,1,14.536-14.536A14.552,14.552,0,0,1,135.6,37.883Zm5.1-24.316a26,26,0,0,1,1.582,8.028h4.214A11.063,11.063,0,0,0,140.7,13.567Zm0,19.562a11.063,11.063,0,0,0,5.8-8.028h-4.214A26,26,0,0,1,140.7,33.129Zm-5.1-20.812c-.28,0-1.11.643-1.881,2.627a22.606,22.606,0,0,0-1.287,6.651h6.337a22.609,22.609,0,0,0-1.286-6.651C136.71,12.959,135.882,12.317,135.6,12.317Zm-1.881,19.434c.771,1.985,1.6,2.627,1.881,2.627s1.11-.643,1.882-2.627a22.609,22.609,0,0,0,1.286-6.651h-6.337A22.606,22.606,0,0,0,133.719,31.751ZM124.71,21.6h4.213a26.036,26.036,0,0,1,1.582-8.028A11.065,11.065,0,0,0,124.71,21.6Zm0,3.5a11.067,11.067,0,0,0,5.795,8.028,26.036,26.036,0,0,1-1.582-8.028Z" transform="translate(-99.136 -0.001)" fill="#fff"/>
    </g>
  </g>
</svg>
