<svg xmlns="http://www.w3.org/2000/svg" width="52.84" height="47.336" viewBox="0 0 52.84 47.336">
  <g id="Group_1242" data-name="Group 1242" transform="translate(0 -4.5)">
    <path id="Path_4166" data-name="Path 4166" d="M2.443,5.508,5.508,2.443A1.431,1.431,0,1,0,3.485.419L.419,3.484A1.431,1.431,0,1,0,2.443,5.508Z" transform="translate(48.649 23.306) rotate(45)" fill="#fff"/>
    <path id="Path_4168" data-name="Path 4168" d="M1.431,5.927A1.431,1.431,0,0,0,2.862,4.5V1.431A1.431,1.431,0,1,0,0,1.431V4.5A1.431,1.431,0,0,0,1.431,5.927Z" transform="translate(45.398 13.552) rotate(45)" fill="#fff"/>
    <path id="Path_4169" data-name="Path 4169" d="M.419,2.4a1.431,1.431,0,0,0,0,2.024L6.55,10.552a1.431,1.431,0,0,0,2.024,0l2.4-2.4L2.817,0Z" transform="translate(7.758 19.739) rotate(45)" fill="#fff"/>
    <path id="Path_4170" data-name="Path 4170" d="M10.048,0,0,4.728,6.869,11.6a1.431,1.431,0,0,0,2.024,0l5.364-5.364a1.431,1.431,0,0,0,0-2.024Z" transform="translate(15.955 32.962) rotate(45)" fill="#fff"/>
    <path id="Path_4171" data-name="Path 4171" d="M12.179.419a1.431,1.431,0,0,0-2.307.4L0,24.369l8.154,8.154L31.7,22.651a1.431,1.431,0,0,0,.4-2.307Z" transform="translate(29.843 4.5) rotate(45)" fill="#fff"/>
    <path id="Path_4167" data-name="Path 4167" d="M4.5,0H1.431a1.431,1.431,0,1,0,0,2.862H4.5A1.431,1.431,0,0,0,4.5,0Z" transform="translate(43.23 35.227) rotate(45)" fill="#fff"/>
  </g>
</svg>
