<svg id="retargeting" xmlns="http://www.w3.org/2000/svg" width="47.335" height="47.335" viewBox="0 0 47.335 47.335">
  <g id="Group_1180" data-name="Group 1180" transform="translate(0 0)">
    <g id="Group_1179" data-name="Group 1179" transform="translate(0)">
      <path id="Path_4155" data-name="Path 4155" d="M24.666,22.715c-.008-.008-.01-.019-.018-.027l-7.914-7.914V9.8a1.386,1.386,0,0,0-.406-.981L8.007.408a1.387,1.387,0,0,0-2.367.981v4.16H1.387a1.387,1.387,0,0,0-.98,2.367L8.82,16.329a1.386,1.386,0,0,0,.98.406h4.973l7.914,7.914c.008.008.019.01.027.018a1.381,1.381,0,0,0,1.952-1.952Z" transform="translate(0 -0.001)" fill="#fff"/>
    </g>
  </g>
  <g id="Group_1182" data-name="Group 1182" transform="translate(0 0)">
    <g id="Group_1181" data-name="Group 1181" transform="translate(0 0)">
      <path id="Path_4156" data-name="Path 4156" d="M23.67,0a23.46,23.46,0,0,0-9.925,2.313L18,6.569A18.073,18.073,0,1,1,6.57,18L2.316,13.745A23.463,23.463,0,0,0,0,23.669,23.668,23.668,0,1,0,23.67,0Z" transform="translate(-0.003 -0.002)" fill="#fff"/>
    </g>
  </g>
  <g id="Group_1184" data-name="Group 1184" transform="translate(11.187 11.187)">
    <g id="Group_1183" data-name="Group 1183">
      <path id="Path_4157" data-name="Path 4157" d="M133.483,121a12.334,12.334,0,0,0-4.16.767v1.671l3.206,3.206a6.827,6.827,0,0,1,.954-.1,6.934,6.934,0,1,1-6.934,6.934,6.824,6.824,0,0,1,.1-.954l-3.206-3.206h-1.671a12.334,12.334,0,0,0-.767,4.16A12.481,12.481,0,1,0,133.483,121Z" transform="translate(-121.002 -121.001)" fill="#fff"/>
    </g>
  </g>
</svg>
