<svg id="_483947" data-name="483947" xmlns="http://www.w3.org/2000/svg" width="28.494" height="28.494" viewBox="0 0 28.494 28.494">
  <g id="Group_333" data-name="Group 333">
    <path id="Path_3298" data-name="Path 3298" d="M26.207,18.7a16.178,16.178,0,0,1-5.081-.809,2.322,2.322,0,0,0-2.259.476l-3.2,2.419A17.7,17.7,0,0,1,7.7,12.829l2.347-3.12a2.3,2.3,0,0,0,.567-2.333,16.2,16.2,0,0,1-.812-5.089A2.289,2.289,0,0,0,7.519,0H2.286A2.289,2.289,0,0,0,0,2.286,26.237,26.237,0,0,0,26.207,28.493a2.289,2.289,0,0,0,2.286-2.286V20.989A2.289,2.289,0,0,0,26.207,18.7Z" fill="#d6c4ff"/>
  </g>
</svg>
