<svg xmlns="http://www.w3.org/2000/svg" width="43.609" height="34.722" viewBox="0 0 43.609 34.722">
  <g id="_711284" data-name="711284" transform="translate(0.606 -51.96)">
    <g id="Group_1269" data-name="Group 1269" transform="translate(29.412 57.353)">
      <g id="Group_1268" data-name="Group 1268" transform="translate(0 0)">
        <path id="Path_4227" data-name="Path 4227" d="M367.748,122.247l-9.8-10.387a1.59,1.59,0,1,0-2.312,2.182l8.774,9.3-8.774,9.3a1.59,1.59,0,0,0,2.312,2.183l9.8-10.387A1.59,1.59,0,0,0,367.748,122.247Z" transform="translate(-355.199 -111.361)" fill="#fff" stroke="#fff" stroke-width="1"/>
      </g>
    </g>
    <g id="Group_1271" data-name="Group 1271" transform="translate(0.001 57.353)">
      <g id="Group_1270" data-name="Group 1270" transform="translate(0 0)">
        <path id="Path_4228" data-name="Path 4228" d="M12.551,132.632l-8.774-9.3,8.774-9.3a1.59,1.59,0,0,0-2.313-2.182l-9.8,10.387a1.59,1.59,0,0,0,0,2.183l9.8,10.387a1.59,1.59,0,0,0,2.312-2.183Z" transform="translate(-0.001 -111.36)" fill="#fff" stroke="#fff" stroke-width="1"/>
      </g>
    </g>
    <g id="Group_1273" data-name="Group 1273" transform="translate(17.276 52.478)">
      <g id="Group_1272" data-name="Group 1272" transform="translate(0 0)">
        <path id="Path_4229" data-name="Path 4229" d="M215.13,52.5a1.592,1.592,0,0,0-1.812,1.332l-4.663,30.525a1.59,1.59,0,0,0,1.332,1.812,1.637,1.637,0,0,0,.242.018,1.59,1.59,0,0,0,1.57-1.35l4.664-30.525A1.59,1.59,0,0,0,215.13,52.5Z" transform="translate(-208.636 -52.478)" fill="#fff" stroke="#fff" stroke-width="1"/>
      </g>
    </g>
  </g>
</svg>
