<svg xmlns="http://www.w3.org/2000/svg" width="45.212" height="31.648" viewBox="0 0 45.212 31.648">
  <path id="users-solid" d="M6.782,45.564a4.521,4.521,0,1,0-4.521-4.521A4.525,4.525,0,0,0,6.782,45.564Zm31.648,0a4.521,4.521,0,1,0-4.521-4.521A4.525,4.525,0,0,0,38.43,45.564Zm2.261,2.261H36.17a4.508,4.508,0,0,0-3.186,1.314,10.333,10.333,0,0,1,5.305,7.728h4.662a2.258,2.258,0,0,0,2.261-2.261V52.345A4.525,4.525,0,0,0,40.691,47.824Zm-18.085,0a7.912,7.912,0,1,0-7.912-7.912A7.908,7.908,0,0,0,22.606,47.824Zm5.425,2.261h-.586a10.924,10.924,0,0,1-9.678,0h-.586a8.14,8.14,0,0,0-8.138,8.138v2.035a3.392,3.392,0,0,0,3.391,3.391H32.779a3.392,3.392,0,0,0,3.391-3.391V58.223A8.14,8.14,0,0,0,28.032,50.085Zm-15.8-.947a4.508,4.508,0,0,0-3.186-1.314H4.521A4.525,4.525,0,0,0,0,52.345v2.261a2.258,2.258,0,0,0,2.261,2.261H6.916a10.359,10.359,0,0,1,5.312-7.728Z" transform="translate(0 -32)" fill="#fff"/>
</svg>
