<svg id="SEO" xmlns="http://www.w3.org/2000/svg" width="43.562" height="43.562" viewBox="0 0 43.562 43.562">
  <path id="Path_4158" data-name="Path 4158" d="M10.356,326.934l-9.241,9.239a3.813,3.813,0,0,0,5.393,5.392l9.256-9.254A19.4,19.4,0,0,1,10.356,326.934Z" transform="translate(0 -299.118)" fill="#fff"/>
  <path id="Path_4159" data-name="Path 4159" d="M141.287,4.983a17,17,0,1,0,0,24.051A16.9,16.9,0,0,0,141.287,4.983ZM129.255,27.589A10.586,10.586,0,1,1,139.841,17,10.6,10.6,0,0,1,129.255,27.589Zm3.711-17.709a18.937,18.937,0,0,1,1.152,5.847h3.069A8.057,8.057,0,0,0,132.966,9.881Zm0,14.246a8.057,8.057,0,0,0,4.221-5.847h-3.069A18.937,18.937,0,0,1,132.966,24.127ZM129.255,8.97c-.2,0-.808.468-1.37,1.913a16.463,16.463,0,0,0-.938,4.844h4.615a16.465,16.465,0,0,0-.937-4.844C130.063,9.438,129.46,8.97,129.255,8.97Zm-1.37,14.153c.562,1.446,1.166,1.913,1.37,1.913s.808-.468,1.371-1.913a16.466,16.466,0,0,0,.937-4.844h-4.615A16.463,16.463,0,0,0,127.885,23.124Zm-6.561-7.4h3.068a18.961,18.961,0,0,1,1.152-5.847A8.058,8.058,0,0,0,121.324,15.727Zm0,2.552a8.06,8.06,0,0,0,4.22,5.847,18.962,18.962,0,0,1-1.152-5.847Z" transform="translate(-102.7 -0.001)" fill="#fff"/>
</svg>
