<svg xmlns="http://www.w3.org/2000/svg" width="34.832" height="24.491" viewBox="0 0 34.832 24.491">
  <g id="mail" transform="translate(0 -76)">
    <g id="Group_731" data-name="Group 731" transform="translate(23.961 77.75)">
      <g id="Group_730" data-name="Group 730" transform="translate(0 0)">
        <path id="Path_3382" data-name="Path 3382" d="M362.775,101.721l-10.564,10.5,10.564,10.5a3.026,3.026,0,0,0,.307-1.312V103.033A3.026,3.026,0,0,0,362.775,101.721Z" transform="translate(-352.211 -101.721)" fill="#d6c4ff"/>
      </g>
    </g>
    <g id="Group_733" data-name="Group 733" transform="translate(1.75 76)">
      <g id="Group_732" data-name="Group 732">
        <path id="Path_3383" data-name="Path 3383" d="M55.742,76H27.033a3.026,3.026,0,0,0-1.312.307l13.5,13.434a3.064,3.064,0,0,0,4.329,0l13.5-13.434A3.026,3.026,0,0,0,55.742,76Z" transform="translate(-25.721 -76)" fill="#d6c4ff"/>
      </g>
    </g>
    <g id="Group_735" data-name="Group 735" transform="translate(0 77.75)">
      <g id="Group_734" data-name="Group 734" transform="translate(0 0)">
        <path id="Path_3384" data-name="Path 3384" d="M.307,101.721A3.026,3.026,0,0,0,0,103.033V121.4a3.026,3.026,0,0,0,.307,1.312l10.564-10.5Z" transform="translate(0 -101.721)" fill="#d6c4ff"/>
      </g>
    </g>
    <g id="Group_737" data-name="Group 737" transform="translate(1.75 89.689)">
      <g id="Group_736" data-name="Group 736" transform="translate(0 0)">
        <path id="Path_3385" data-name="Path 3385" d="M46.489,277.211l-1.495,1.495a5.108,5.108,0,0,1-7.215,0l-1.495-1.495-10.564,10.5a3.026,3.026,0,0,0,1.312.307H55.742a3.026,3.026,0,0,0,1.312-.307Z" transform="translate(-25.721 -277.211)" fill="#d6c4ff"/>
      </g>
    </g>
  </g>
</svg>
