<svg xmlns="http://www.w3.org/2000/svg" width="37.672" height="37.672" viewBox="0 0 37.672 37.672">
  <g id="Group_1293" data-name="Group 1293" transform="translate(-1542.406 -7143.493)">
    <ellipse id="Ellipse_142" data-name="Ellipse 142" cx="18.836" cy="18.836" rx="18.836" ry="18.836" transform="translate(1542.406 7143.493)" fill="#8b66f0"/>
    <path id="check-solid" d="M7.088,80.355.306,73.572a1.043,1.043,0,0,1,0-1.476l1.476-1.476a1.043,1.043,0,0,1,1.476,0L7.826,75.19,17.612,65.4a1.044,1.044,0,0,1,1.476,0l1.476,1.476a1.043,1.043,0,0,1,0,1.476l-12,12a1.043,1.043,0,0,1-1.476,0Z" transform="translate(1550.84 7089.89)" fill="#fff"/>
  </g>
</svg>
