<svg id="_1828956-2" data-name="1828956-2" xmlns="http://www.w3.org/2000/svg" width="37.64" height="41.062" viewBox="0 0 37.64 41.062">
  <path id="Path_4218" data-name="Path 4218" d="M325.789,21.56a5.56,5.56,0,1,1-5.56-5.56A5.56,5.56,0,0,1,325.789,21.56Zm0,0" transform="translate(-289.432 -14.717)" fill="#fff"/>
  <path id="Path_4219" data-name="Path 4219" d="M305.512,13.688a6.844,6.844,0,1,1,6.844-6.844A6.851,6.851,0,0,1,305.512,13.688Zm0-11.121a4.277,4.277,0,1,0,4.277,4.277A4.282,4.282,0,0,0,305.512,2.566Zm0,0" transform="translate(-274.715)" fill="#fff"/>
  <path id="Path_4220" data-name="Path 4220" d="M325.789,362.893a5.56,5.56,0,1,1-5.56-5.561A5.56,5.56,0,0,1,325.789,362.893Zm0,0" transform="translate(-289.432 -328.674)" fill="#fff"/>
  <path id="Path_4221" data-name="Path 4221" d="M305.512,355.02a6.844,6.844,0,1,1,6.844-6.844A6.851,6.851,0,0,1,305.512,355.02Zm0-11.121a4.277,4.277,0,1,0,4.277,4.278A4.282,4.282,0,0,0,305.512,343.9Zm0,0" transform="translate(-274.715 -313.957)" fill="#fff"/>
  <path id="Path_4222" data-name="Path 4222" d="M27.121,192.228a5.561,5.561,0,1,1-5.561-5.56A5.56,5.56,0,0,1,27.121,192.228Zm0,0" transform="translate(-14.717 -171.697)" fill="#fff"/>
  <path id="Path_4223" data-name="Path 4223" d="M6.844,184.355a6.844,6.844,0,1,1,6.844-6.844A6.851,6.851,0,0,1,6.844,184.355Zm0-11.121a4.277,4.277,0,1,0,4.278,4.277A4.282,4.282,0,0,0,6.844,173.234Zm0,0" transform="translate(0 -156.98)" fill="#fff"/>
  <path id="Path_4224" data-name="Path 4224" d="M116.061,102.689a1.711,1.711,0,0,1-.849-3.2l15.875-9.051a1.711,1.711,0,1,1,1.694,2.974l-15.876,9.051A1.7,1.7,0,0,1,116.061,102.689Zm0,0" transform="translate(-105.178 -82.979)" fill="#fff"/>
  <path id="Path_4225" data-name="Path 4225" d="M131.956,278.693a1.7,1.7,0,0,1-.845-.224l-15.876-9.051a1.711,1.711,0,0,1,1.694-2.974L132.8,275.5a1.711,1.711,0,0,1-.849,3.2Zm0,0" transform="translate(-105.198 -244.868)" fill="#fff"/>
</svg>
