<svg id="web_presence" data-name="web presence" xmlns="http://www.w3.org/2000/svg" width="46.411" height="46.409" viewBox="0 0 46.411 46.409">
  <path id="Path_4172" data-name="Path 4172" d="M23.2,0a23.2,23.2,0,0,0,0,46.409,23.844,23.844,0,0,0,4.254-.387l-1.586-4.757a5.252,5.252,0,0,1-.735.6V39.042l-3.6-10.771a5.217,5.217,0,0,1-.271-1.7v3.925a42.657,42.657,0,0,0-5.337.522,41.5,41.5,0,0,1-.677-5.917h6.014v1.47a5.348,5.348,0,0,1,5.318-5.3,5.691,5.691,0,0,1,1.7.271L38.945,25.1h3.5a10.44,10.44,0,0,1-.155,1.122l3.732,1.238a23.845,23.845,0,0,0,.387-4.254A23.223,23.223,0,0,0,23.2,0ZM21.271,34.362v7.5c-1.663-1.122-3.249-3.6-4.37-7.1a39.419,39.419,0,0,1,4.37-.406ZM6.961,12.743A30.105,30.105,0,0,0,12.144,14.6a43.979,43.979,0,0,0-.754,6.633H3.964a19.359,19.359,0,0,1,3-8.489Zm-3,12.357H11.39a44.746,44.746,0,0,0,.754,6.71,30.1,30.1,0,0,0-5.182,1.856,19.262,19.262,0,0,1-3-8.566Zm11.39,15.76a19.293,19.293,0,0,1-5.9-4.08,23.318,23.318,0,0,1,3.616-1.218A25.255,25.255,0,0,0,15.354,40.86ZM13.072,10.848A23.318,23.318,0,0,1,9.456,9.63a19.292,19.292,0,0,1,5.9-4.08A25.255,25.255,0,0,0,13.072,10.848Zm8.2,10.384H15.257a40.7,40.7,0,0,1,.677-5.84,42.657,42.657,0,0,0,5.337.522Zm0-9.185a39.421,39.421,0,0,1-4.37-.406c1.122-3.5,2.707-5.975,4.37-7.1Zm3.867-7.5c1.663,1.122,3.249,3.6,4.37,7.1a39.421,39.421,0,0,1-4.37.406Zm0,16.688V15.915a42.657,42.657,0,0,0,5.337-.522,40.7,40.7,0,0,1,.677,5.84ZM31.055,5.55a19.292,19.292,0,0,1,5.9,4.08,23.318,23.318,0,0,1-3.616,1.218A25.255,25.255,0,0,0,31.055,5.55ZM35.02,21.232a43.98,43.98,0,0,0-.754-6.633,30.106,30.106,0,0,0,5.182-1.856,19.359,19.359,0,0,1,3,8.489Z" fill="#fff"/>
  <path id="Path_4173" data-name="Path 4173" d="M20.574,34.272h-.033A1.448,1.448,0,0,1,19.2,33.28L13.075,14.91a1.45,1.45,0,0,1,1.835-1.835L33.28,19.2a1.449,1.449,0,0,1,.062,2.728L25.1,25.1l-3.171,8.243a1.451,1.451,0,0,1-1.354.93Z" transform="translate(12.139 12.137)" fill="#fff"/>
</svg>
