<svg xmlns="http://www.w3.org/2000/svg" width="34.848" height="34.845" viewBox="0 0 34.848 34.845">
  <g id="Page-1" transform="translate(0.003)">
    <g id="_003---Call" data-name="003---Call" transform="translate(-0.003)">
      <path id="Shape" d="M15.428,20.44a14.063,14.063,0,0,1-4.246-7.984,1.194,1.194,0,0,1,.343-1l2.692-2.69a1.2,1.2,0,0,0,.169-1.487L10.1.624A1.2,1.2,0,0,0,8.543.187l-6.88,3.24A1.2,1.2,0,0,0,1,4.62c.36,3.424,1.853,11.843,10.126,20.116S27.819,34.5,31.245,34.863a1.2,1.2,0,0,0,1.194-.661l3.24-6.88a1.2,1.2,0,0,0-.436-1.554l-6.654-4.284a1.2,1.2,0,0,0-1.487.168l-2.69,2.692a1.194,1.194,0,0,1-1,.343,14.063,14.063,0,0,1-7.984-4.246Z" transform="translate(-0.997 -0.024)" fill="#fff"/>
      <path id="Shape-2" data-name="Shape" d="M39.415,22.616a1.2,1.2,0,0,1-1.2-1.2A9.022,9.022,0,0,0,29.2,12.4a1.2,1.2,0,0,1,0-2.4A11.428,11.428,0,0,1,40.616,21.415,1.2,1.2,0,0,1,39.415,22.616Z" transform="translate(-11.777 -3.992)" fill="#fff"/>
      <path id="Shape-3" data-name="Shape" d="M45.423,18.624a1.2,1.2,0,0,1-1.2-1.2A15.036,15.036,0,0,0,29.2,2.4a1.2,1.2,0,0,1,0-2.4A17.442,17.442,0,0,1,46.624,17.423a1.2,1.2,0,0,1-1.2,1.2Z" transform="translate(-11.777)" fill="#fff"/>
    </g>
  </g>
</svg>
