<svg xmlns="http://www.w3.org/2000/svg" width="41.24" height="34.308" viewBox="0 0 41.24 34.308">
  <g id="right-arrow-2" transform="translate(0 -41.346)">
    <g id="Group_690" data-name="Group 690" transform="translate(0 41.346)">
      <path id="Path_3310" data-name="Path 3310" d="M40.581,56.9,25.687,42A2.264,2.264,0,0,0,22.5,42l-1.352,1.353a2.24,2.24,0,0,0-.659,1.6,2.285,2.285,0,0,0,.659,1.615l8.688,8.708H2.228A2.2,2.2,0,0,0,0,57.494v1.912a2.287,2.287,0,0,0,2.228,2.317h27.7L21.143,70.48a2.235,2.235,0,0,0,0,3.169L22.5,75a2.264,2.264,0,0,0,3.192,0L40.581,60.1a2.276,2.276,0,0,0,0-3.2Z" transform="translate(0 -41.346)" fill="#174780"/>
    </g>
  </g>
</svg>
