<svg xmlns="http://www.w3.org/2000/svg" width="234.938" height="48.014" viewBox="0 0 234.938 48.014">
  <g id="Group_1230" data-name="Group 1230" transform="translate(-283.631 -419.21)">
    <g id="Group_726" data-name="Group 726" transform="translate(304.189 419.21)">
      <path id="Path_3371" data-name="Path 3371" d="M383.627,427.253a3.174,3.174,0,0,1,.864-2.28,3.249,3.249,0,0,1,2.47-.908,3.29,3.29,0,0,1,2.482.908,3.152,3.152,0,0,1,.876,2.28,3.078,3.078,0,0,1-.876,2.244,3.314,3.314,0,0,1-2.482.9,3.273,3.273,0,0,1-2.47-.9A3.1,3.1,0,0,1,383.627,427.253Zm6.278,33.194h-5.914V434.115h5.914Z" transform="translate(-383.627 -423.067)" fill="#fff"/>
      <path id="Path_3372" data-name="Path 3372" d="M445.783,471.07l.17,3.042a9.468,9.468,0,0,1,7.666-3.529q8.225,0,8.371,9.418v17.4h-5.913V480.342a5.422,5.422,0,0,0-1.083-3.711,4.554,4.554,0,0,0-3.541-1.2,5.7,5.7,0,0,0-5.329,3.236V497.4H440.21V471.07Z" transform="translate(-428.577 -460.021)" fill="#fff"/>
      <path id="Path_3373" data-name="Path 3373" d="M577.137,493.166a5.348,5.348,0,0,0,3.675-1.289,4.4,4.4,0,0,0,1.557-3.188h5.573a8.682,8.682,0,0,1-1.533,4.587,10.055,10.055,0,0,1-3.893,3.371,11.6,11.6,0,0,1-5.305,1.241,11.225,11.225,0,0,1-8.761-3.577q-3.237-3.577-3.237-9.88v-.608q0-6.011,3.212-9.625a11.124,11.124,0,0,1,8.761-3.614,10.821,10.821,0,0,1,7.654,2.737,9.81,9.81,0,0,1,3.1,7.192h-5.573a5.416,5.416,0,0,0-1.545-3.723,4.973,4.973,0,0,0-3.687-1.461,5.2,5.2,0,0,0-4.429,2.081q-1.557,2.081-1.582,6.316v.949q0,4.284,1.545,6.388A5.2,5.2,0,0,0,577.137,493.166Z" transform="translate(-527.88 -460.021)" fill="#fff"/>
      <path id="Path_3374" data-name="Path 3374" d="M706.377,476.472a14.656,14.656,0,0,0-2.409-.195q-4.065,0-5.476,3.115V497.4h-5.914V471.07h5.646l.146,2.945a6.662,6.662,0,0,1,5.938-3.432,5.546,5.546,0,0,1,2.093.341Z" transform="translate(-629.061 -460.021)" fill="#fff"/>
      <path id="Path_3375" data-name="Path 3375" d="M778.459,497.887a12.232,12.232,0,0,1-9.113-3.541,12.842,12.842,0,0,1-3.493-9.43v-.73a15.8,15.8,0,0,1,1.521-7.045,11.576,11.576,0,0,1,4.271-4.831,11.294,11.294,0,0,1,6.133-1.728q5.378,0,8.31,3.432t2.933,9.71v2.385H771.815a7.9,7.9,0,0,0,2.178,5.159,6.538,6.538,0,0,0,4.806,1.9,8.007,8.007,0,0,0,6.619-3.285l3.188,3.042a10.65,10.65,0,0,1-4.222,3.662A13.22,13.22,0,0,1,778.459,497.887Zm-.706-22.559a4.981,4.981,0,0,0-3.93,1.7,8.83,8.83,0,0,0-1.911,4.745H783.18v-.437a7.187,7.187,0,0,0-1.582-4.49A4.943,4.943,0,0,0,777.753,475.328Z" transform="translate(-687.271 -460.021)" fill="#fff"/>
      <path id="Path_3376" data-name="Path 3376" d="M908.492,497.4a9.123,9.123,0,0,1-.682-2.458,9.949,9.949,0,0,1-13.384.682,7.241,7.241,0,0,1-2.507-5.6,7.478,7.478,0,0,1,3.127-6.462q3.127-2.251,8.943-2.251h3.626v-1.728a4.615,4.615,0,0,0-1.144-3.274,4.536,4.536,0,0,0-3.48-1.229,5.205,5.205,0,0,0-3.309,1.011,3.123,3.123,0,0,0-1.29,2.567h-5.914a6.562,6.562,0,0,1,1.435-4.051,9.57,9.57,0,0,1,3.906-2.957,13.716,13.716,0,0,1,5.512-1.071,11.049,11.049,0,0,1,7.373,2.324,8.287,8.287,0,0,1,2.823,6.534v11.876a13.447,13.447,0,0,0,1,5.67v.414Zm-6.5-4.259a6.725,6.725,0,0,0,3.3-.852A5.688,5.688,0,0,0,907.616,490v-4.965h-3.188a8.717,8.717,0,0,0-4.941,1.144,3.7,3.7,0,0,0-1.655,3.236,3.457,3.457,0,0,0,1.132,2.714A4.381,4.381,0,0,0,901.994,493.142Z" transform="translate(-787.418 -460.021)" fill="#fff"/>
      <path id="Path_3377" data-name="Path 3377" d="M1032.413,490.246a2.682,2.682,0,0,0-1.3-2.409,13.851,13.851,0,0,0-4.32-1.46,22.168,22.168,0,0,1-5.037-1.606q-4.429-2.141-4.429-6.206a7.01,7.01,0,0,1,2.872-5.695,11.357,11.357,0,0,1,7.3-2.287,11.816,11.816,0,0,1,7.629,2.336,7.416,7.416,0,0,1,2.908,6.06h-5.914a3.645,3.645,0,0,0-1.265-2.835,4.85,4.85,0,0,0-3.358-1.132,5.242,5.242,0,0,0-3.176.9,2.84,2.84,0,0,0-1.229,2.409,2.4,2.4,0,0,0,1.144,2.117,15.743,15.743,0,0,0,4.624,1.521,21.9,21.9,0,0,1,5.464,1.825,7.742,7.742,0,0,1,2.944,2.543,6.484,6.484,0,0,1,.961,3.6,6.861,6.861,0,0,1-2.945,5.756,12.557,12.557,0,0,1-7.714,2.2,13.615,13.615,0,0,1-5.767-1.168,9.486,9.486,0,0,1-3.942-3.212,7.6,7.6,0,0,1-1.411-4.405h5.743a4.167,4.167,0,0,0,1.582,3.225,6.145,6.145,0,0,0,3.869,1.132,5.979,5.979,0,0,0,3.553-.889A2.748,2.748,0,0,0,1032.413,490.246Z" transform="translate(-886.346 -460.021)" fill="#fff"/>
      <path id="Path_3378" data-name="Path 3378" d="M1150.268,497.887a12.233,12.233,0,0,1-9.114-3.541,12.843,12.843,0,0,1-3.492-9.43v-.73a15.8,15.8,0,0,1,1.521-7.045,11.574,11.574,0,0,1,4.271-4.831,11.293,11.293,0,0,1,6.133-1.728q5.378,0,8.31,3.432t2.933,9.71v2.385h-17.206a7.9,7.9,0,0,0,2.178,5.159,6.537,6.537,0,0,0,4.806,1.9,8.007,8.007,0,0,0,6.619-3.285l3.188,3.042a10.651,10.651,0,0,1-4.222,3.662A13.22,13.22,0,0,1,1150.268,497.887Zm-.706-22.559a4.98,4.98,0,0,0-3.93,1.7,8.828,8.828,0,0,0-1.911,4.745h11.267v-.437a7.187,7.187,0,0,0-1.582-4.49A4.943,4.943,0,0,0,1149.562,475.328Z" transform="translate(-982.638 -460.021)" fill="#fff"/>
      <path id="Path_3379" data-name="Path 3379" d="M1275.56,456.59h-5.914V419.21h5.914Z" transform="translate(-1087.488 -419.21)" fill="#fff"/>
      <path id="Path_3380" data-name="Path 3380" d="M1323.5,490.812l5.354-17.862h6.3l-10.464,30.322q-2.409,6.643-8.177,6.643a10.533,10.533,0,0,1-2.847-.44v-4.6l1.119.073a5.76,5.76,0,0,0,3.37-.815,5.4,5.4,0,0,0,1.789-2.736l.852-2.261-9.248-26.19h6.376Z" transform="translate(-1120.78 -461.902)" fill="#fff"/>
    </g>
    <rect id="Rectangle_2348" data-name="Rectangle 2348" width="5.914" height="19.793" transform="translate(294.092 436.797)" fill="#bfb0ef"/>
    <rect id="Rectangle_2349" data-name="Rectangle 2349" width="5.914" height="13.254" transform="translate(283.631 443.336)" fill="#bfb0ef"/>
  </g>
</svg>
