<svg xmlns="http://www.w3.org/2000/svg" width="120" height="120" viewBox="0 0 120 120">
  <g id="Group_1296" data-name="Group 1296" transform="translate(-578.6 -4922.808)">
    <rect id="Rectangle_2341" data-name="Rectangle 2341" width="120" height="120" rx="36" transform="translate(578.6 4922.808)" fill="#00bbd3"/>
    <g id="web_presence" data-name="web presence" transform="translate(608.814 4953.025)">
      <path id="Path_4172" data-name="Path 4172" d="M29.784,0a29.784,29.784,0,0,0,0,59.568,30.6,30.6,0,0,0,5.46-.5l-2.035-6.106a6.741,6.741,0,0,1-.943.769V50.112L27.649,36.287A6.7,6.7,0,0,1,27.3,34.1v5.038a54.751,54.751,0,0,0-6.85.67,53.269,53.269,0,0,1-.869-7.595H27.3V34.1a6.865,6.865,0,0,1,6.825-6.8,7.3,7.3,0,0,1,2.184.347l13.676,4.567H54.48a13.4,13.4,0,0,1-.2,1.44l4.79,1.588a30.605,30.605,0,0,0,.5-5.46A29.808,29.808,0,0,0,29.784,0ZM27.3,44.105v9.63c-2.135-1.44-4.17-4.617-5.609-9.109a50.6,50.6,0,0,1,5.609-.521ZM8.935,16.356a38.641,38.641,0,0,0,6.652,2.383,56.449,56.449,0,0,0-.968,8.513H5.088a24.847,24.847,0,0,1,3.847-10.9ZM5.088,32.216h9.531a57.434,57.434,0,0,0,.968,8.613,38.641,38.641,0,0,0-6.652,2.383,24.723,24.723,0,0,1-3.847-11ZM19.707,52.445a24.763,24.763,0,0,1-7.57-5.237,29.929,29.929,0,0,1,4.641-1.564A32.415,32.415,0,0,0,19.707,52.445ZM16.778,13.924a29.93,29.93,0,0,1-4.641-1.564,24.762,24.762,0,0,1,7.57-5.237A32.415,32.415,0,0,0,16.778,13.924ZM27.3,27.252H19.583a52.243,52.243,0,0,1,.869-7.5,54.752,54.752,0,0,0,6.85.67Zm0-11.79a50.6,50.6,0,0,1-5.609-.521c1.44-4.492,3.475-7.669,5.609-9.109Zm4.964-9.63c2.135,1.44,4.17,4.617,5.609,9.109a50.6,50.6,0,0,1-5.609.521Zm0,21.42V20.427a54.752,54.752,0,0,0,6.85-.67,52.245,52.245,0,0,1,.869,7.5ZM39.861,7.123a24.762,24.762,0,0,1,7.57,5.237,29.93,29.93,0,0,1-4.641,1.564A32.415,32.415,0,0,0,39.861,7.123Zm5.088,20.129a56.45,56.45,0,0,0-.968-8.513,38.642,38.642,0,0,0,6.652-2.383,24.847,24.847,0,0,1,3.847,10.9Z" fill="#fff"/>
      <path id="Path_4173" data-name="Path 4173" d="M22.721,40.3h-.042a1.859,1.859,0,0,1-1.722-1.273L13.1,15.452A1.861,1.861,0,0,1,15.452,13.1l23.579,7.861a1.86,1.86,0,0,1,.079,3.5l-10.581,4.07L24.459,39.11A1.862,1.862,0,0,1,22.721,40.3Z" transform="translate(19.266 19.264)" fill="#fff"/>
    </g>
  </g>
</svg>
