<svg xmlns="http://www.w3.org/2000/svg" width="189" height="189" viewBox="0 0 189 189">
  <g id="Group_1294" data-name="Group 1294" transform="translate(-1325 -2120.197)">
    <rect id="Rectangle_2323" data-name="Rectangle 2323" width="189" height="189" rx="94.5" transform="translate(1325 2120.197)" fill="#b353ef"/>
    <g id="_726568" data-name="726568" transform="translate(1322 2165.136)">
      <g id="Group_1201" data-name="Group 1201" transform="translate(80.89)">
        <g id="Group_1200" data-name="Group 1200">
          <path id="Path_4175" data-name="Path 4175" d="M190.965,5.63h-6.114a8.447,8.447,0,0,0-15.927,0h-6.109A2.816,2.816,0,0,0,160,8.445v11.26a2.816,2.816,0,0,0,2.815,2.815h28.15a2.816,2.816,0,0,0,2.815-2.815V8.445A2.816,2.816,0,0,0,190.965,5.63Z" transform="translate(-160)" fill="#fff"/>
        </g>
      </g>
      <g id="Group_1203" data-name="Group 1203" transform="translate(64 11.26)">
        <g id="Group_1202" data-name="Group 1202">
          <path id="Path_4176" data-name="Path 4176" d="M125.93,64H120.3v8.445a8.455,8.455,0,0,1-8.445,8.445H83.705a8.455,8.455,0,0,1-8.445-8.445V64H69.63A5.639,5.639,0,0,0,64,69.63v67.56a5.568,5.568,0,0,0,5.63,5.63h56.3a5.568,5.568,0,0,0,5.63-5.63V69.63A5.568,5.568,0,0,0,125.93,64ZM96.958,113.848,85.7,125.108a2.827,2.827,0,0,1-3.986,0l-5.63-5.63a2.815,2.815,0,0,1,3.98-3.98l3.643,3.637,9.267-9.267a2.817,2.817,0,0,1,3.986,3.98Zm0-22.52L85.7,102.588a2.827,2.827,0,0,1-3.986,0l-5.63-5.63a2.815,2.815,0,0,1,3.98-3.98l3.643,3.637,9.267-9.267a2.817,2.817,0,0,1,3.986,3.98ZM117.485,120.3h-11.26a2.815,2.815,0,0,1,0-5.63h11.26a2.815,2.815,0,1,1,0,5.63Zm0-22.52h-11.26a2.815,2.815,0,1,1,0-5.63h11.26a2.815,2.815,0,0,1,0,5.63Z" transform="translate(-64 -64)" fill="#fff"/>
        </g>
      </g>
    </g>
  </g>
</svg>
