<svg xmlns="http://www.w3.org/2000/svg" width="60.191" height="74.367" viewBox="0 0 60.191 74.367">
  <g id="right-arrow" transform="translate(-81.478 20)">
    <g id="Group_683" data-name="Group 683" transform="translate(101.478)">
      <g id="Path_3290" data-name="Path 3290" transform="translate(-101.478 0)" fill="#b4c8d9">
        <path d="M 104.4827575683594 44.36737442016602 C 101.3085861206055 44.36737442016602 98.32534790039063 43.13231658935547 96.08254241943359 40.88970184326172 L 94.95768737792969 39.76537322998047 C 92.71115875244141 37.51523208618164 91.47802734375 34.53371810913086 91.47802734375 31.36263275146484 C 91.47802734375 28.19036102294922 92.71212768554688 25.20817565917969 94.95297241210938 22.96541786193848 L 100.7418441772461 17.17654991149902 L 94.97024536132813 11.40494632720947 C 90.34053039550781 6.777046203613281 90.33812713623047 -0.7586680054664612 94.96625518798828 -5.392024993896484 L 96.09732818603516 -6.522839546203613 C 98.33648681640625 -8.763825416564941 101.3208618164063 -9.999996185302734 104.4970169067383 -9.999996185302734 C 107.6730575561523 -9.999996185302734 110.6573715209961 -8.76386833190918 112.9001998901367 -6.519325256347656 L 128.1913299560547 8.771546363830566 C 130.4416351318359 11.02356052398682 131.675537109375 14.01564598083496 131.6685180664063 17.19941711425781 C 131.6756439208984 20.33620262145996 130.4427490234375 23.32691764831543 128.1969451904297 25.57624626159668 L 112.8831405639648 40.88953018188477 C 110.6428756713867 43.13134765625 107.6586608886719 44.36737442016602 104.4827575683594 44.36737442016602 Z" stroke="none"/>
        <path d="M 104.4970169067383 -1.1444091796875e-05 C 103.993522644043 -1.1444091796875e-05 103.5212936401367 0.1950149536132813 103.167594909668 0.5490379333496094 L 102.0413208007813 1.675037384033203 C 101.3084182739258 2.408763885498047 101.3084182739258 3.601289749145508 102.0413208007813 4.333889007568359 L 114.8839721679688 17.17656326293945 L 102.0270462036133 30.03348922729492 C 101.6733169555664 30.38748931884766 101.4780197143555 30.85941314697266 101.4780197143555 31.36263847351074 C 101.4780197143555 31.86638832092285 101.6733169555664 32.33831405639648 102.0270462036133 32.6926155090332 L 103.1533432006836 33.81834030151367 C 103.5073471069336 34.17234039306641 103.9792709350586 34.36738967895508 104.4827728271484 34.36738967895508 C 104.9862442016602 34.36738967895508 105.4584426879883 34.17234039306641 105.8121948242188 33.81834030151367 L 121.1203155517578 18.51073837280273 C 121.4748916625977 18.15561485290527 121.6696701049805 17.68146324157715 121.6685409545898 17.17741394042969 C 121.6696701049805 16.67138862609863 121.4748916625977 16.19751358032227 121.1203155517578 15.84266471862793 L 105.826416015625 0.5490379333496094 C 105.4726943969727 0.1950149536132813 105.0004959106445 -1.1444091796875e-05 104.4970169067383 -1.1444091796875e-05 M 104.4970169067383 -20.0000114440918 C 110.345947265625 -20.0000114440918 115.8426208496094 -17.7225341796875 119.9745407104492 -13.58711242675781 L 135.2623291015625 1.700389862060547 C 139.4084167480469 5.849714279174805 141.6815185546875 11.36001396179199 141.6684875488281 17.22188949584961 C 141.6815795898438 22.99056434631348 139.4104156494141 28.49848937988281 135.2734222412109 32.64191436767578 L 119.9540939331055 47.96071624755859 C 115.8274688720703 52.09026336669922 110.3311157226563 54.36738967895508 104.4827728271484 54.36738967895508 C 98.63734436035156 54.36738967895508 93.14277648925781 52.092041015625 89.01121520996094 47.96046447753906 L 87.88851928710938 46.83836364746094 C 83.74929809570313 42.69241333007813 81.47801208496094 37.20171356201172 81.47801208496094 31.36263847351074 C 81.47801208496094 26.10429382324219 83.31973266601563 21.12922286987305 86.69795227050781 17.17501068115234 C 79.392333984375 8.594696044921875 79.78849792480469 -4.347282409667969 87.89122009277344 -12.45913696289063 L 89.02719116210938 -13.59481048583984 C 93.15092468261719 -17.72236251831055 98.64779663085938 -20.0000114440918 104.4970169067383 -20.0000114440918 Z" stroke="none" fill="#fcfdff"/>
      </g>
    </g>
  </g>
</svg>
