<svg xmlns="http://www.w3.org/2000/svg" width="188" height="188" viewBox="0 0 188 188">
  <g id="Group_1293" data-name="Group 1293" transform="translate(-729 -2121)">
    <rect id="Rectangle_2324" data-name="Rectangle 2324" width="188" height="188" rx="94" transform="translate(729 2121)" fill="#745bc3"/>
    <g id="Group_1198" data-name="Group 1198" transform="translate(8.879 1.048)">
      <g id="Page-1" transform="translate(776.121 2184.466)">
        <g id="_003---Call" data-name="003---Call" transform="translate(0)">
          <path id="Shape" d="M28.935,39.517c-6.439-6.439-7.893-12.878-8.221-15.458a2.312,2.312,0,0,1,.664-1.935l5.211-5.209a2.326,2.326,0,0,0,.328-2.879l-8.3-12.883A2.326,2.326,0,0,0,15.607.306L2.288,6.578A2.313,2.313,0,0,0,1.009,8.889c.7,6.63,3.588,22.928,19.6,38.945s32.312,18.907,38.945,19.6a2.313,2.313,0,0,0,2.311-1.279l6.273-13.319a2.326,2.326,0,0,0-.843-3.009L54.416,41.538a2.326,2.326,0,0,0-2.879.326l-5.208,5.211a2.312,2.312,0,0,1-1.935.664c-2.58-.328-9.019-1.782-15.458-8.221Z" transform="translate(-0.997 0.01)" fill="#fff"/>
        </g>
      </g>
      <g id="Group_1199" data-name="Group 1199" transform="translate(-1.792)">
        <path id="clock-regular" d="M24.944,8A16.944,16.944,0,1,0,41.888,24.944,16.941,16.941,0,0,0,24.944,8Zm0,30.609A13.665,13.665,0,1,1,38.609,24.944a13.95,13.95,0,0,1-1.49,6.213A13.541,13.541,0,0,1,24.944,38.609Zm4.222-7.133-5.8-5.106a.825.825,0,0,1-.335-.663V15.379a.822.822,0,0,1,.82-.82h2.186a.822.822,0,0,1,.82.82v8.79l4.564,4.211a.819.819,0,0,1,.178,1.148L30.314,31.3a.826.826,0,0,1-1.148.178Z" transform="translate(813.289 2168.952)" fill="#fff"/>
      </g>
    </g>
  </g>
</svg>
