<svg xmlns="http://www.w3.org/2000/svg" width="189" height="189" viewBox="0 0 189 189">
  <g id="Group_1295" data-name="Group 1295" transform="translate(-1938.668 -2120.197)">
    <rect id="Rectangle_2322" data-name="Rectangle 2322" width="189" height="189" rx="94.5" transform="translate(1938.668 2120.197)" fill="#00bbd3"/>
    <g id="_598430" data-name="598430" transform="translate(1992.65 2174.178)">
      <g id="Group_1204" data-name="Group 1204">
        <path id="Path_4177" data-name="Path 4177" d="M76.986,4.052H64.83V0H16.208V4.052H4.052A3.828,3.828,0,0,0,0,8.1v9.725A18.38,18.38,0,0,0,16.208,36.062v.405A24.37,24.37,0,0,0,35.251,60.373l-2.836,8.509H23.1a3.892,3.892,0,0,0-3.647,2.836l-3.242,9.319H64.83l-3.242-9.319a3.892,3.892,0,0,0-3.647-2.836H48.623l-2.836-8.509A24.37,24.37,0,0,0,64.83,36.467v-.405A18.38,18.38,0,0,0,81.038,17.828V8.1A3.828,3.828,0,0,0,76.986,4.052ZM16.208,27.958a10.821,10.821,0,0,1-8.1-10.13V12.156h8.1ZM48.623,40.519l-8.1-4.457-8.1,4.457,2.026-8.1-6.078-8.1h8.509l3.647-8.1,3.647,8.1h8.509l-6.078,8.1ZM72.934,17.828a10.455,10.455,0,0,1-8.1,10.13v-15.8h8.1Z" fill="#fff"/>
      </g>
    </g>
  </g>
</svg>
